<svg xmlns="http://www.w3.org/2000/svg" viewBox="0 0 200 200">
<rect width="200" height="200" rx="24" fill="#f3e6d8"/>
<ellipse cx="100" cy="112" rx="72" ry="48" fill="#fdf9f2" stroke="#e8dfd0" stroke-width="2"/>
<ellipse cx="100" cy="110" rx="56" ry="32" fill="#8a7161" opacity="1"/>
<ellipse cx="84" cy="98" rx="22" ry="10" fill="#a08a76" opacity="0.6"/>
<polyline points="100.0,110.0 100.8,110.1 101.4,110.3 101.9,110.7 102.1,111.3 101.9,111.8 101.4,112.4 100.6,112.9 99.4,113.4 97.9,113.6 96.2,113.7 94.3,113.5 92.5,113.0 90.9,112.2 89.5,111.2 88.5,110.0 88.0,108.6 88.1,107.1 88.8,105.5 90.2,104.0 92.3,102.7 95.0,101.6 98.2,100.7 101.8,100.3 105.7,100.3 109.6,100.8 113.4,101.8 116.8,103.3 119.7,105.2 121.8,107.4 123.1,110.0 123.3,112.7 122.5,115.5 120.5,118.2 117.5,120.7 113.5,122.8 108.6,124.5 103.0,125.6 96.9,126.0 90.7,125.7" fill="none" stroke="#d9a53c" stroke-width="2.4" stroke-linecap="round" opacity="0.85"/>
<circle cx="97.1" cy="111.8" r="2.6" fill="#7a1f2a" opacity="1"/>
<circle cx="94.1" cy="97.1" r="2.6" fill="#7a1f2a" opacity="1"/>
<circle cx="110.1" cy="111.4" r="2.6" fill="#7a1f2a" opacity="1"/>
<circle cx="76.9" cy="111.2" r="2.6" fill="#7a1f2a" opacity="1"/>
<circle cx="109.2" cy="100.0" r="2.6" fill="#7a1f2a" opacity="1"/>
<circle cx="101.2" cy="113.2" r="2.6" fill="#7a1f2a" opacity="1"/>
<circle cx="83.9" cy="100.0" r="2.6" fill="#7a1f2a" opacity="1"/>
<circle cx="113.4" cy="107.6" r="2.6" fill="#7a1f2a" opacity="1"/>
<circle cx="82.1" cy="118.9" r="2.6" fill="#7a1f2a" opacity="1"/>
<circle cx="100.7" cy="97.2" r="2.6" fill="#7a1f2a" opacity="1"/>
<circle cx="94.9" cy="109.4" r="1.6" fill="#4d6b2e" opacity="1"/>
<circle cx="106.0" cy="99.6" r="1.6" fill="#4d6b2e" opacity="1"/>
<circle cx="103.1" cy="113.3" r="1.6" fill="#4d6b2e" opacity="1"/>
<circle cx="83.3" cy="102.6" r="1.6" fill="#4d6b2e" opacity="1"/>
<circle cx="112.6" cy="106.1" r="1.6" fill="#4d6b2e" opacity="1"/>
<circle cx="96.2" cy="111.5" r="1.6" fill="#4d6b2e" opacity="1"/>
<circle cx="97.3" cy="98.1" r="1.6" fill="#4d6b2e" opacity="1"/>
<circle cx="108.4" cy="112.0" r="1.6" fill="#4d6b2e" opacity="1"/>
</svg>