<svg xmlns="http://www.w3.org/2000/svg" viewBox="0 0 200 200">
<rect width="200" height="200" rx="24" fill="#fbe9dd"/>
<ellipse cx="100" cy="112" rx="72" ry="48" fill="#fdf9f2" stroke="#e8dfd0" stroke-width="2"/>
<ellipse cx="100" cy="110" rx="58" ry="34" fill="#e9d8a8" opacity="1"/>
<polyline points="100.0,108.0 100.8,108.1 101.5,108.4 102.0,108.8 102.2,109.3 102.1,110.0 101.5,110.6 100.6,111.1 99.3,111.6 97.7,111.9 95.9,111.9 94.0,111.7 92.0,111.2 90.3,110.4 88.8,109.3 87.7,108.0 87.2,106.5 87.3,104.9 88.1,103.2 89.6,101.6 91.8,100.2 94.7,99.0 98.1,98.1 102.0,97.7 106.1,97.7 110.3,98.2 114.3,99.3 117.9,100.8 121.0,102.9 123.3,105.3 124.6,108.0 124.9,110.9 124.0,113.9 121.9,116.8 118.7,119.4 114.4,121.7 109.1,123.5 103.2,124.6 96.7,125.1 90.1,124.7" fill="none" stroke="#7a8f3f" stroke-width="2.2" stroke-linecap="round" opacity="0.85"/>
<circle cx="104.1" cy="111.8" r="2.6" fill="#8a3b1f" opacity="1"/>
<circle cx="80.2" cy="104.9" r="2.6" fill="#8a3b1f" opacity="1"/>
<circle cx="111.0" cy="104.5" r="2.6" fill="#8a3b1f" opacity="1"/>
<circle cx="91.4" cy="122.4" r="2.6" fill="#8a3b1f" opacity="1"/>
<circle cx="93.3" cy="98.4" r="2.6" fill="#8a3b1f" opacity="1"/>
<circle cx="108.5" cy="110.4" r="2.6" fill="#8a3b1f" opacity="1"/>
<circle cx="78.7" cy="112.1" r="2.6" fill="#8a3b1f" opacity="1"/>
<circle cx="101.9" cy="104.1" r="1.6" fill="#4d6b2e" opacity="1"/>
<circle cx="108.1" cy="117.9" r="1.6" fill="#4d6b2e" opacity="1"/>
<circle cx="89.6" cy="105.5" r="1.6" fill="#4d6b2e" opacity="1"/>
<circle cx="121.4" cy="103.1" r="1.6" fill="#4d6b2e" opacity="1"/>
<circle cx="93.0" cy="116.4" r="1.6" fill="#4d6b2e" opacity="1"/>
<circle cx="97.7" cy="103.1" r="1.6" fill="#4d6b2e" opacity="1"/>
<circle cx="117.2" cy="114.3" r="1.6" fill="#4d6b2e" opacity="1"/>
<circle cx="87.3" cy="109.5" r="1.6" fill="#4d6b2e" opacity="1"/>
<circle cx="114.6" cy="96.1" r="1.6" fill="#4d6b2e" opacity="1"/>
<circle cx="101.8" cy="118.4" r="1.6" fill="#4d6b2e" opacity="1"/>
</svg>