<svg xmlns="http://www.w3.org/2000/svg" viewBox="0 0 200 200">
<rect width="200" height="200" rx="24" fill="#f7ecd8"/>
<ellipse cx="100" cy="112" rx="72" ry="48" fill="#fdf9f2" stroke="#e8dfd0" stroke-width="2"/>
<ellipse cx="100" cy="110" rx="54" ry="30" fill="#e3b768" opacity="1"/>
<circle cx="93.0" cy="108.0" r="1.3" fill="#4a5c2a" opacity="1"/>
<circle cx="114.2" cy="100.3" r="1.3" fill="#4a5c2a" opacity="1"/>
<circle cx="98.9" cy="114.9" r="1.3" fill="#4a5c2a" opacity="1"/>
<circle cx="85.7" cy="96.6" r="1.3" fill="#4a5c2a" opacity="1"/>
<circle cx="116.0" cy="109.8" r="1.3" fill="#4a5c2a" opacity="1"/>
<circle cx="92.6" cy="110.8" r="1.3" fill="#4a5c2a" opacity="1"/>
<circle cx="105.6" cy="95.9" r="1.3" fill="#4a5c2a" opacity="1"/>
<circle cx="106.1" cy="115.2" r="1.3" fill="#4a5c2a" opacity="1"/>
<circle cx="76.1" cy="102.6" r="1.3" fill="#4a5c2a" opacity="1"/>
<circle cx="116.7" cy="104.0" r="1.3" fill="#4a5c2a" opacity="1"/>
<circle cx="95.5" cy="113.7" r="1.3" fill="#4a5c2a" opacity="1"/>
<circle cx="93.4" cy="95.0" r="1.3" fill="#4a5c2a" opacity="1"/>
<circle cx="113.1" cy="112.6" r="1.3" fill="#4a5c2a" opacity="1"/>
<circle cx="92.5" cy="108.9" r="1.3" fill="#4a5c2a" opacity="1"/>
<circle cx="111.5" cy="98.3" r="1.3" fill="#4a5c2a" opacity="1"/>
<circle cx="101.5" cy="115.3" r="1.3" fill="#4a5c2a" opacity="1"/>
<circle cx="81.5" cy="98.5" r="1.3" fill="#4a5c2a" opacity="1"/>
<circle cx="116.9" cy="107.7" r="1.3" fill="#4a5c2a" opacity="1"/>
<circle cx="93.2" cy="112.0" r="1.3" fill="#4a5c2a" opacity="1"/>
<circle cx="101.2" cy="95.1" r="1.3" fill="#4a5c2a" opacity="1"/>
<circle cx="108.9" cy="114.5" r="1.3" fill="#4a5c2a" opacity="1"/>
<circle cx="74.1" cy="105.8" r="1.3" fill="#4a5c2a" opacity="1"/>
<circle cx="115.4" cy="101.7" r="1.3" fill="#4a5c2a" opacity="1"/>
<circle cx="97.4" cy="114.5" r="1.3" fill="#4a5c2a" opacity="1"/>
<circle cx="88.6" cy="95.8" r="1.3" fill="#4a5c2a" opacity="1"/>
<circle cx="115.0" cy="111.0" r="1.3" fill="#4a5c2a" opacity="1"/>
<circle cx="92.4" cy="110.1" r="1.3" fill="#4a5c2a" opacity="1"/>
<circle cx="108.1" cy="96.7" r="1.3" fill="#4a5c2a" opacity="1"/>
<circle cx="104.3" cy="115.3" r="1.3" fill="#4a5c2a" opacity="1"/>
<circle cx="77.9" cy="100.9" r="1.3" fill="#4a5c2a" opacity="1"/>
<circle cx="117.1" cy="105.4" r="1.3" fill="#4a5c2a" opacity="1"/>
<circle cx="94.5" cy="113.1" r="1.3" fill="#4a5c2a" opacity="1"/>
<circle cx="96.4" cy="94.8" r="1.3" fill="#4a5c2a" opacity="1"/>
<circle cx="111.6" cy="113.5" r="1.3" fill="#4a5c2a" opacity="1"/>
<circle cx="92.8" cy="108.3" r="1.3" fill="#4a5c2a" opacity="1"/>
<circle cx="113.3" cy="99.5" r="1.3" fill="#4a5c2a" opacity="1"/>
<circle cx="99.8" cy="115.1" r="1.3" fill="#4a5c2a" opacity="1"/>
<circle cx="84.0" cy="97.3" r="1.3" fill="#4a5c2a" opacity="1"/>
<circle cx="116.4" cy="109.0" r="1.3" fill="#4a5c2a" opacity="1"/>
<circle cx="92.8" cy="111.2" r="1.3" fill="#4a5c2a" opacity="1"/>
<polyline points="100.0,110.0 100.6,110.1 101.1,110.3 101.5,110.6 101.6,111.0 101.5,111.5 101.1,111.9 100.5,112.4 99.5,112.7 98.3,112.9 96.9,112.9 95.5,112.8 94.0,112.4 92.7,111.8 91.6,111.0 90.8,110.0 90.4,108.9 90.4,107.7 91.0,106.4 92.2,105.2 93.8,104.1 96.0,103.2 98.6,102.6 101.5,102.3 104.6,102.3 107.7,102.7 110.7,103.5 113.4,104.6 115.7,106.1 117.5,108.0 118.5,110.0 118.7,112.2 118.0,114.4 116.4,116.6 114.0,118.6 110.8,120.3 106.8,121.6 102.4,122.5 97.6,122.8 92.6,122.6" fill="none" stroke="#c69241" stroke-width="1.4" stroke-linecap="round" opacity="0.85"/>
</svg>